<svg width="64" height="62" viewBox="0 0 64 62" fill="none" xmlns="http://www.w3.org/2000/svg" xmlns:xlink="http://www.w3.org/1999/xlink">
<path d="M18.003,4.92L13.475,0.392C5.875,6.187 0.872,15.117 0.428,25.25L6.762,25.25C6.986,21.234 8.113,17.32 10.06,13.801C12.006,10.281 14.721,7.245 18.003,4.92ZM57.238,25.25L63.572,25.25C63.097,15.117 58.093,6.187 50.525,0.392L46.028,4.92C49.296,7.257 52,10.295 53.939,13.813C55.879,17.331 57.006,21.239 57.238,25.25ZM51,26.833C51,17.112 45.807,8.973 36.75,6.82L36.75,4.667C36.75,2.038 34.628,-0.083 32,-0.083C29.372,-0.083 27.25,2.038 27.25,4.667L27.25,6.82C18.162,8.973 13,17.08 13,26.833L13,42.667L6.667,49L6.667,52.167L57.333,52.167L57.333,49L51,42.667L51,26.833ZM32,61.667C32.443,61.667 32.855,61.635 33.267,61.54C35.325,61.097 37.003,59.703 37.827,57.803C38.143,57.043 38.302,56.22 38.302,55.333L25.635,55.333C25.667,58.817 28.485,61.667 32,61.667Z" fill="#FFFFFF"/>
</svg>
