<svg width="62" height="62" viewBox="0 0 62 62" fill="none" xmlns="http://www.w3.org/2000/svg" xmlns:xlink="http://www.w3.org/1999/xlink">
<path d="M59.918,20.947C59.927,21.12 59.941,21.295 59.941,21.468C59.942,32.583 59.944,43.698 59.939,54.815C59.937,57.435 58.492,59.327 56.105,59.878C55.654,59.981 55.197,59.977 54.741,59.977C38.25,59.979 21.759,59.953 5.267,60.002C2.224,60.01 0.042,57.687 0.053,54.946C0.093,43.722 0.068,32.497 0.07,21.272C0.07,21.164 0.086,21.055 0.093,20.947C0.409,20.678 0.794,20.751 1.156,20.751C5.006,20.744 8.858,20.748 12.708,20.748C28.024,20.748 43.339,20.746 58.656,20.753C59.084,20.751 59.536,20.644 59.918,20.947Z" fill="#E61E14"/>
<path d="M59.918,20.947C39.976,20.947 20.036,20.947 0.094,20.947C0.079,20.907 0.049,20.866 0.049,20.826C0.037,17.23 -0.082,13.632 0.098,10.042C0.227,7.489 2.335,5.596 4.887,5.542C5.91,5.521 6.932,5.523 7.953,5.544C8.32,5.551 8.444,5.444 8.435,5.068C8.411,4.11 8.418,3.15 8.43,2.192C8.447,0.907 9.261,0.03 10.442,0.002C11.652,-0.026 12.559,0.848 12.599,2.131C12.629,3.11 12.622,4.093 12.599,5.073C12.591,5.449 12.715,5.545 13.076,5.544C15.708,5.53 18.34,5.528 20.972,5.545C21.373,5.549 21.429,5.391 21.422,5.049C21.403,4.112 21.404,3.175 21.418,2.238C21.436,0.904 22.307,-0.009 23.535,0C24.738,0.009 25.577,0.907 25.593,2.217C25.604,3.175 25.609,4.134 25.588,5.092C25.581,5.432 25.68,5.544 26.026,5.542C28.681,5.53 31.333,5.53 33.988,5.542C34.334,5.544 34.433,5.432 34.428,5.092C34.409,4.112 34.41,3.131 34.424,2.15C34.442,0.886 35.288,0.009 36.475,-0.002C37.651,-0.012 38.552,0.862 38.592,2.103C38.624,3.061 38.615,4.021 38.592,4.979C38.583,5.369 38.639,5.549 39.107,5.545C41.718,5.521 44.327,5.526 46.938,5.54C47.299,5.542 47.427,5.449 47.416,5.072C47.392,4.134 47.399,3.197 47.411,2.26C47.429,0.913 48.279,0 49.502,-0.004C50.734,-0.005 51.574,0.897 51.586,2.252C51.595,3.189 51.603,4.126 51.581,5.063C51.57,5.437 51.694,5.537 52.061,5.54C53.298,5.556 54.546,5.4 55.773,5.615C58.328,6.064 59.908,7.841 59.965,10.491C60.038,13.889 59.984,17.29 59.981,20.69C59.977,20.779 59.939,20.863 59.918,20.947Z" fill="#FD3018"/>
<path d="M13.245,32.76C12.767,32.76 12.289,32.779 11.812,32.756C10.695,32.704 9.803,31.767 9.803,30.67C9.803,29.562 10.681,28.622 11.807,28.587C12.805,28.555 13.805,28.552 14.802,28.588C15.914,28.63 16.802,29.608 16.781,30.7C16.758,31.781 15.896,32.693 14.807,32.754C14.287,32.782 13.765,32.76 13.245,32.76Z" fill="#61DE56"/>
<path d="M46.701,32.761C46.223,32.761 45.745,32.779 45.268,32.758C44.144,32.712 43.252,31.8 43.231,30.697C43.21,29.566 44.111,28.615 45.273,28.583C46.249,28.557 47.228,28.553 48.204,28.585C49.322,28.622 50.213,29.573 50.209,30.672C50.206,31.775 49.319,32.704 48.198,32.754C47.701,32.779 47.2,32.76 46.701,32.761Z" fill="#13C37B"/>
<path d="M13.287,38.364C13.786,38.364 14.285,38.345 14.784,38.368C15.861,38.417 16.697,39.247 16.778,40.322C16.853,41.324 16.121,42.322 15.078,42.467C13.896,42.633 12.692,42.632 11.512,42.469C10.467,42.326 9.735,41.333 9.805,40.327C9.882,39.226 10.73,38.406 11.854,38.364C12.331,38.347 12.809,38.361 13.287,38.361C13.287,38.363 13.287,38.363 13.287,38.364Z" fill="#61DE56"/>
<path d="M46.741,42.535C46.242,42.535 45.741,42.567 45.244,42.528C44.069,42.438 43.189,41.478 43.233,40.375C43.277,39.231 44.163,38.383 45.366,38.361C46.277,38.343 47.19,38.343 48.101,38.363C49.265,38.387 50.136,39.217 50.209,40.336C50.277,41.41 49.445,42.392 48.303,42.514C47.788,42.57 47.263,42.523 46.743,42.523C46.741,42.528 46.741,42.532 46.741,42.535Z" fill="#13C37B"/>
<path d="M13.308,52.278C12.788,52.278 12.264,52.301 11.746,52.273C10.709,52.215 9.891,51.385 9.807,50.336C9.729,49.353 10.423,48.357 11.428,48.194C12.65,47.999 13.898,48.009 15.122,48.187C16.127,48.333 16.839,49.324 16.78,50.303C16.713,51.376 15.881,52.222 14.807,52.276C14.308,52.301 13.807,52.28 13.308,52.278Z" fill="#61DE56"/>
<path d="M46.736,52.278C46.216,52.278 45.692,52.303 45.174,52.273C44.137,52.215 43.319,51.381 43.237,50.332C43.16,49.35 43.854,48.353 44.861,48.194C46.083,48 47.331,48.009 48.554,48.189C49.558,48.336 50.272,49.329 50.209,50.306C50.141,51.38 49.307,52.222 48.233,52.276C47.736,52.301 47.235,52.28 46.736,52.28C46.736,52.278 46.736,52.278 46.736,52.278Z" fill="#13C37B"/>
<path d="M24.412,32.761C23.934,32.761 23.455,32.777 22.979,32.758C21.818,32.709 20.953,31.781 20.97,30.627C20.987,29.503 21.85,28.615 22.996,28.583C23.951,28.559 24.907,28.559 25.86,28.583C27.023,28.611 27.92,29.543 27.915,30.679C27.909,31.816 27.012,32.723 25.843,32.76C25.366,32.775 24.888,32.763 24.412,32.761Z" fill="#13C37B"/>
<path d="M35.519,32.761C35.041,32.761 34.562,32.78 34.086,32.756C32.965,32.698 32.093,31.768 32.098,30.66C32.103,29.545 32.972,28.622 34.103,28.587C35.079,28.557 36.056,28.557 37.034,28.585C38.172,28.618 39.034,29.525 39.044,30.646C39.055,31.803 38.189,32.712 37.016,32.758C36.517,32.777 36.018,32.761 35.519,32.761Z" fill="#61DE56"/>
<path d="M35.541,52.278C35.042,52.278 34.541,52.299 34.044,52.273C33.032,52.219 32.201,51.409 32.103,50.411C32.002,49.367 32.665,48.362 33.698,48.196C34.941,47.997 36.212,47.995 37.454,48.196C38.493,48.364 39.119,49.334 39.034,50.416C38.953,51.422 38.14,52.219 37.103,52.273C36.585,52.301 36.063,52.28 35.541,52.278Z" fill="#61DE56"/>
<path d="M24.424,42.542C23.968,42.542 23.511,42.562 23.057,42.539C21.818,42.476 20.958,41.59 20.97,40.41C20.982,39.223 21.851,38.382 23.115,38.361C24.026,38.347 24.939,38.343 25.848,38.364C26.974,38.39 27.846,39.228 27.914,40.305C27.982,41.394 27.235,42.341 26.113,42.492C25.56,42.565 24.989,42.504 24.426,42.504C24.424,42.518 24.424,42.53 24.424,42.542Z" fill="#13C37B"/>
<path d="M35.571,38.363C36.07,38.364 36.569,38.345 37.069,38.368C38.137,38.417 38.967,39.224 39.037,40.256C39.112,41.368 38.456,42.312 37.365,42.467C36.185,42.635 34.981,42.633 33.8,42.469C32.719,42.319 32.018,41.331 32.103,40.266C32.187,39.21 33.04,38.406 34.14,38.366C34.615,38.347 35.093,38.361 35.571,38.363Z" fill="#61DE56"/>
<path d="M24.457,52.278C23.937,52.278 23.415,52.301 22.895,52.273C21.865,52.217 21.05,51.406 20.977,50.402C20.898,49.31 21.52,48.36 22.569,48.194C23.811,47.999 25.082,47.997 26.324,48.2C27.321,48.362 27.986,49.352 27.911,50.362C27.834,51.392 26.998,52.222 25.953,52.275C25.455,52.301 24.956,52.28 24.457,52.278Z" fill="#13C37B"/>
</svg>
