<svg width="60" height="60" viewBox="0 0 60 60" fill="none" xmlns="http://www.w3.org/2000/svg" xmlns:xlink="http://www.w3.org/1999/xlink">
<path d="M21.317,8.874C21.319,11.595 21.322,14.315 21.324,17.036C20.999,17.36 20.599,17.249 20.228,17.255C19.801,17.26 19.592,17.443 19.603,17.928C19.609,18.195 19.6,18.463 19.6,18.73C19.6,30.597 19.6,42.464 19.596,54.33C19.596,54.768 19.672,55.227 19.443,55.637C19.333,55.746 19.201,55.802 19.059,55.809C17.995,55.859 16.929,55.859 15.864,55.809C15.743,55.803 15.628,55.753 15.528,55.673C15.301,55.368 15.347,54.999 15.347,54.648C15.341,52.332 15.347,50.013 15.343,47.696C15.341,46.754 15.315,46.729 14.459,46.726C13.515,46.722 12.571,46.719 11.626,46.728C10.964,46.735 10.905,46.796 10.901,47.537C10.893,49.898 10.901,52.26 10.895,54.622C10.893,54.973 10.939,55.34 10.73,55.655C10.504,55.841 10.238,55.832 9.978,55.834C8.209,55.841 6.438,55.839 4.668,55.834C4.428,55.834 4.184,55.836 3.964,55.692C3.776,55.513 3.772,55.263 3.759,55.017C3.746,54.772 3.751,54.527 3.751,54.281C3.751,37.675 3.751,21.068 3.751,4.462C3.751,2.854 3.797,2.818 5.157,3.275C10.281,4.992 15.412,6.689 20.539,8.396C20.831,8.498 21.13,8.573 21.317,8.874Z" fill="#E61E14"/>
<path d="M50.307,9.549C50.313,12.626 50.32,15.704 50.326,18.78C50.105,19.015 49.839,18.943 49.584,18.902C48.828,18.78 48.077,18.617 47.322,18.496C46.762,18.406 46.687,18.481 46.662,19.101C46.652,19.346 46.658,19.591 46.658,19.837C46.658,31.34 46.66,42.842 46.655,54.346C46.655,54.784 46.734,55.243 46.497,55.649C46.35,55.784 46.172,55.821 45.99,55.825C45.008,55.848 44.027,55.85 43.045,55.823C42.884,55.819 42.727,55.78 42.59,55.674C42.361,55.37 42.409,55.001 42.408,54.65C42.401,52.489 42.408,50.328 42.403,48.167C42.401,47.308 42.361,47.268 41.581,47.263C40.939,47.259 40.294,47.256 39.652,47.265C38.99,47.273 38.93,47.333 38.927,48.074C38.917,50.258 38.927,52.441 38.921,54.625C38.919,54.976 38.964,55.343 38.756,55.658C38.586,55.803 38.385,55.828 38.183,55.832C37.258,55.846 36.331,55.848 35.406,55.832C35.204,55.828 35.002,55.803 34.835,55.655C34.662,55.406 34.67,55.11 34.67,54.822C34.665,43.041 34.663,31.258 34.67,19.477C34.67,19.409 34.68,19.344 34.686,19.278C34.673,18.787 34.678,18.297 34.68,17.806C34.681,17.409 34.512,17.262 34.163,17.244C33.732,17.221 33.272,17.371 32.876,17.042C32.749,16.827 32.737,16.58 32.744,16.338C32.778,15.081 32.644,13.819 32.823,12.566C32.967,12.234 33.251,12.197 33.532,12.15C37.8,11.443 42.069,10.727 46.339,10.018C47.411,9.84 48.483,9.661 49.556,9.488C49.806,9.445 50.073,9.323 50.307,9.549Z" fill="#E61E14"/>
<path d="M58.04,22.005C58.046,22.182 58.061,22.361 58.061,22.538C58.061,33.562 58.061,44.586 58.061,55.608C57.919,55.801 57.714,55.825 57.515,55.828C56.254,55.848 54.992,55.848 53.731,55.83C53.569,55.828 53.411,55.798 53.269,55.707C53.006,55.451 53.054,55.1 53.051,54.772C53.042,53.503 53.05,52.231 53.046,50.962C53.043,49.886 52.804,49.431 52.249,49.442C51.708,49.451 51.484,49.9 51.48,50.992C51.477,52.24 51.485,53.488 51.477,54.736C51.476,55.064 51.521,55.413 51.288,55.689C50.318,55.916 49.348,55.948 48.381,55.669C48.186,55.404 48.208,55.084 48.208,54.774C48.203,43.578 48.203,32.384 48.208,21.188C48.208,20.164 48.339,20.037 49.232,20.198C51.931,20.687 54.628,21.188 57.324,21.693C57.58,21.74 57.846,21.776 58.04,22.005Z" fill="#61DE56"/>
<path d="M21.317,8.874C15.694,7.006 10.072,5.142 4.454,3.259C3.968,3.096 3.931,3.287 3.935,3.739C3.953,5.434 3.942,7.13 3.942,8.825C3.943,24.418 3.943,40.011 3.945,55.603C3.301,55.963 2.655,55.954 2.009,55.608C2.009,37.27 2.011,18.932 1.998,0.595C1.998,0.02 2.069,-0.104 2.605,0.077C8.58,2.088 14.56,4.084 20.549,6.041C21.195,6.252 21.426,6.557 21.346,7.273C21.29,7.799 21.324,8.34 21.317,8.874Z" fill="#FD3018"/>
<path d="M2.009,55.608C2.655,55.606 3.299,55.605 3.945,55.603C6.199,55.603 8.452,55.603 10.708,55.603C10.889,55.434 11.108,55.417 11.329,55.415C12.525,55.406 13.722,55.406 14.918,55.415C15.139,55.417 15.359,55.434 15.54,55.603C16.828,55.605 18.116,55.606 19.403,55.61C20.029,55.248 20.699,55.474 21.348,55.427C22.632,55.402 23.917,55.4 25.2,55.427C26.491,55.402 27.783,55.4 29.074,55.427C30.778,55.39 32.482,55.415 34.186,55.413C34.426,55.413 34.67,55.422 34.868,55.61C36.157,55.608 37.445,55.606 38.733,55.605C38.877,55.468 39.051,55.425 39.234,55.422C40.188,55.402 41.142,55.402 42.096,55.422C42.278,55.425 42.451,55.468 42.597,55.605C43.886,55.605 45.175,55.606 46.465,55.606C47.109,55.311 47.754,55.318 48.4,55.603C49.366,55.603 50.331,55.603 51.296,55.603C51.941,55.316 52.585,55.316 53.229,55.603C54.838,55.605 56.45,55.606 58.059,55.61C58.579,55.615 59.097,55.633 59.617,55.621C59.903,55.613 60.006,55.739 59.996,56.049C59.979,56.623 59.982,57.2 59.975,57.775C59.803,57.966 59.577,57.968 59.355,57.979C59.074,57.991 58.792,57.986 58.509,57.986C40.249,57.986 21.989,57.986 3.729,57.986C3.527,57.986 3.327,57.984 3.125,57.986C2.239,57.995 2.231,58.006 2.203,59.001C2.195,59.309 2.232,59.633 2.016,59.889C1.396,59.896 0.615,60.181 0.206,59.789C-0.188,59.413 0.109,58.528 0.08,57.869C0.058,57.357 0.117,56.838 0.066,56.333C0.003,55.71 0.235,55.562 0.744,55.613C1.162,55.656 1.588,55.613 2.009,55.608Z" fill="#61DE56"/>
<path d="M2.016,59.891C2.014,59.4 2.035,58.908 2.001,58.419C1.969,57.941 2.089,57.757 2.562,57.757C21.698,57.771 40.837,57.773 59.974,57.775C59.98,58.331 59.974,58.89 59.996,59.447C60.009,59.782 59.925,59.961 59.596,59.912C59.517,59.9 59.434,59.911 59.355,59.911C40.422,59.911 21.49,59.911 2.557,59.911C2.377,59.911 2.197,59.898 2.016,59.891Z" fill="#13C37B"/>
<path d="M21.335,55.604C20.691,55.606 20.047,55.606 19.403,55.608C19.403,43.009 19.409,30.409 19.39,17.812C19.388,17.147 19.551,16.958 20.12,17.033C20.517,17.085 20.924,17.04 21.325,17.038C24.556,17.038 27.786,17.038 31.015,17.038C31.654,16.714 32.297,16.746 32.939,17.022C33.458,17.029 33.977,17.051 34.496,17.038C34.783,17.031 34.883,17.146 34.872,17.461C34.851,18.035 34.854,18.61 34.848,19.187C34.562,19.477 34.203,19.401 33.869,19.403C30.169,19.41 26.469,19.407 22.769,19.407C22.588,19.407 22.407,19.403 22.226,19.409C21.61,19.432 21.558,19.493 21.537,20.2C21.531,20.445 21.535,20.691 21.535,20.936C21.535,32.064 21.537,43.193 21.531,54.321C21.529,54.754 21.629,55.22 21.335,55.604Z" fill="#13C37B"/>
<path d="M48.4,55.603C47.754,55.605 47.11,55.605 46.465,55.606C46.465,43.365 46.468,31.124 46.455,18.882C46.455,18.308 46.49,18.064 47.12,18.218C48.174,18.476 49.256,18.601 50.326,18.782C51.921,19.094 53.515,19.409 55.11,19.713C55.918,19.867 56.727,20.014 57.539,20.145C57.902,20.202 58.127,20.324 58.069,20.807C58.022,21.201 58.046,21.606 58.04,22.005C56.658,21.765 55.276,21.536 53.896,21.285C52.181,20.974 50.467,20.653 48.757,20.316C48.46,20.257 48.395,20.379 48.399,20.653C48.4,20.743 48.399,20.832 48.399,20.922C48.399,32.481 48.399,44.042 48.4,55.603Z" fill="#13C37B"/>
<path d="M50.307,9.549C46.279,10.218 42.249,10.884 38.222,11.561C36.457,11.858 34.696,12.179 32.934,12.489C32.321,12.809 31.691,12.995 31.013,12.761C30.381,12.848 29.748,12.94 29.115,13.024C28.543,13.099 28.224,12.727 28.13,12.181C28.03,11.606 28.312,11.156 28.816,11.015C29.472,10.831 30.146,10.732 30.816,10.618C33.162,10.22 35.509,9.824 37.857,9.441C39.889,9.108 41.925,8.8 43.957,8.465C45.93,8.14 47.9,7.785 49.872,7.459C50.662,7.328 51.455,7.23 52.247,7.131C52.824,7.06 53.124,7.459 53.208,8.005C53.292,8.55 53.022,9.001 52.547,9.128C51.811,9.323 51.054,9.414 50.307,9.549Z" fill="#FD3018"/>
<path d="M31.013,12.761C31.654,12.669 32.294,12.58 32.934,12.489C32.936,14 32.938,15.509 32.939,17.02C32.298,17.026 31.656,17.031 31.015,17.036C31.013,15.611 31.013,14.186 31.013,12.761Z" fill="#FD3018"/>
<path d="M15.538,55.603C13.927,55.603 12.317,55.603 10.706,55.603C10.706,52.774 10.714,49.945 10.698,47.116C10.695,46.667 10.785,46.493 11.224,46.504C12.488,46.536 13.756,46.536 15.02,46.504C15.459,46.493 15.549,46.667 15.546,47.116C15.53,49.945 15.538,52.774 15.538,55.603Z" fill="#546F7A"/>
<path d="M9.746,17.561C9.746,17.181 9.723,16.802 9.75,16.426C9.792,15.835 10.194,15.439 10.708,15.439C11.223,15.439 11.638,15.833 11.662,16.428C11.692,17.206 11.696,17.989 11.659,18.766C11.631,19.348 11.187,19.751 10.677,19.717C10.143,19.683 9.817,19.348 9.755,18.764C9.712,18.367 9.746,17.962 9.746,17.561Z" fill="#61DE56"/>
<path d="M16.502,17.561C16.502,17.94 16.521,18.32 16.497,18.696C16.458,19.323 16.045,19.735 15.509,19.717C14.997,19.7 14.603,19.298 14.582,18.696C14.556,17.94 14.553,17.18 14.584,16.424C14.608,15.831 15.025,15.436 15.538,15.436C16.053,15.436 16.439,15.831 16.5,16.422C16.505,16.467 16.503,16.512 16.503,16.556C16.503,16.891 16.503,17.224 16.503,17.559C16.503,17.561 16.502,17.561 16.502,17.561Z" fill="#61DE56"/>
<path d="M6.84,25.081C6.84,25.437 6.854,25.795 6.836,26.15C6.806,26.793 6.425,27.211 5.889,27.22C5.351,27.229 4.938,26.814 4.917,26.182C4.893,25.448 4.893,24.712 4.917,23.978C4.938,23.348 5.354,22.932 5.89,22.941C6.426,22.95 6.806,23.369 6.836,24.012C6.853,24.366 6.84,24.725 6.84,25.081Z" fill="#61DE56"/>
<path d="M9.746,25.063C9.746,24.683 9.723,24.304 9.75,23.928C9.792,23.337 10.194,22.941 10.708,22.941C11.223,22.941 11.638,23.335 11.662,23.93C11.692,24.708 11.696,25.491 11.659,26.268C11.631,26.85 11.187,27.253 10.677,27.219C10.143,27.185 9.817,26.85 9.755,26.266C9.712,25.869 9.746,25.464 9.746,25.063Z" fill="#61DE56"/>
<path d="M16.5,25.095C16.5,25.475 16.523,25.854 16.495,26.23C16.453,26.823 16.053,27.219 15.54,27.219C15.025,27.219 14.608,26.825 14.585,26.232C14.555,25.453 14.552,24.671 14.587,23.894C14.614,23.312 15.058,22.911 15.569,22.943C16.103,22.977 16.429,23.312 16.492,23.894C16.532,24.289 16.498,24.696 16.5,25.095Z" fill="#61DE56"/>
<path d="M6.836,32.59C6.836,32.97 6.857,33.349 6.832,33.725C6.791,34.32 6.396,34.717 5.882,34.722C5.369,34.728 4.944,34.334 4.92,33.745C4.888,32.966 4.886,32.185 4.922,31.407C4.948,30.823 5.383,30.431 5.895,30.443C6.409,30.456 6.793,30.855 6.832,31.455C6.856,31.831 6.836,32.21 6.836,32.59Z" fill="#61DE56"/>
<path d="M11.668,32.595C11.668,32.975 11.691,33.355 11.663,33.731C11.621,34.323 11.223,34.719 10.709,34.721C10.196,34.722 9.776,34.327 9.754,33.736C9.723,32.957 9.72,32.175 9.755,31.398C9.781,30.816 10.223,30.413 10.735,30.445C11.271,30.477 11.597,30.812 11.66,31.394C11.701,31.79 11.667,32.196 11.668,32.595Z" fill="#61DE56"/>
<path d="M16.502,32.638C16.502,32.995 16.521,33.353 16.497,33.707C16.458,34.307 16.074,34.708 15.562,34.722C15.025,34.737 14.603,34.323 14.581,33.695C14.555,32.961 14.556,32.225 14.579,31.491C14.598,30.857 15.007,30.44 15.543,30.443C16.08,30.447 16.466,30.864 16.498,31.503C16.518,31.881 16.502,32.261 16.502,32.638Z" fill="#61DE56"/>
<path d="M4.91,40.047C4.91,39.691 4.894,39.333 4.914,38.978C4.951,38.348 5.354,37.933 5.89,37.943C6.404,37.952 6.806,38.352 6.828,38.95C6.857,39.705 6.857,40.464 6.828,41.222C6.806,41.818 6.399,42.216 5.886,42.224C5.348,42.232 4.948,41.816 4.914,41.184C4.894,40.806 4.91,40.427 4.91,40.047Z" fill="#61DE56"/>
<path d="M11.668,40.074C11.668,40.454 11.688,40.833 11.663,41.209C11.626,41.809 11.24,42.21 10.729,42.223C10.191,42.237 9.771,41.823 9.749,41.195C9.723,40.461 9.725,39.725 9.747,38.991C9.768,38.357 10.177,37.94 10.713,37.943C11.25,37.947 11.634,38.364 11.667,39.005C11.684,39.36 11.67,39.718 11.67,40.074C11.67,40.074 11.67,40.074 11.668,40.074Z" fill="#61DE56"/>
<path d="M6.838,10.105C6.838,10.462 6.854,10.82 6.835,11.174C6.799,11.806 6.399,12.222 5.861,12.215C5.348,12.207 4.941,11.81 4.919,11.214C4.889,10.458 4.889,9.699 4.919,8.942C4.941,8.345 5.345,7.944 5.856,7.935C6.394,7.925 6.798,8.338 6.833,8.97C6.856,9.348 6.838,9.728 6.838,10.105Z" fill="#61DE56"/>
<path d="M14.574,40.081C14.574,39.725 14.56,39.367 14.577,39.012C14.608,38.371 14.992,37.952 15.527,37.945C16.064,37.938 16.476,38.352 16.497,38.986C16.521,39.72 16.523,40.455 16.497,41.19C16.474,41.82 16.058,42.235 15.522,42.224C14.986,42.214 14.608,41.793 14.579,41.15C14.56,40.794 14.574,40.438 14.574,40.081Z" fill="#61DE56"/>
<path d="M6.84,47.587C6.84,47.943 6.854,48.301 6.836,48.656C6.806,49.299 6.425,49.718 5.889,49.726C5.351,49.735 4.938,49.32 4.917,48.688C4.893,47.954 4.893,47.218 4.917,46.484C4.938,45.854 5.354,45.438 5.89,45.447C6.426,45.456 6.806,45.875 6.836,46.518C6.853,46.872 6.84,47.231 6.84,47.587Z" fill="#61DE56"/>
<path d="M9.746,9.994C9.746,9.638 9.723,9.28 9.749,8.926C9.792,8.333 10.189,7.937 10.703,7.935C11.218,7.934 11.636,8.328 11.66,8.92C11.691,9.699 11.694,10.48 11.659,11.259C11.631,11.84 11.19,12.243 10.679,12.213C10.144,12.181 9.815,11.848 9.754,11.264C9.712,10.847 9.746,10.419 9.746,9.994Z" fill="#61DE56"/>
<path d="M14.577,10.059C14.577,9.681 14.555,9.3 14.582,8.924C14.624,8.333 15.026,7.937 15.54,7.937C16.055,7.937 16.469,8.331 16.494,8.926C16.524,9.704 16.528,10.487 16.49,11.264C16.463,11.846 16.019,12.249 15.509,12.215C14.974,12.181 14.648,11.846 14.587,11.262C14.545,10.865 14.577,10.46 14.577,10.059Z" fill="#61DE56"/>
<path d="M6.838,17.609C6.838,17.966 6.854,18.324 6.835,18.678C6.799,19.31 6.399,19.726 5.861,19.718C5.348,19.711 4.941,19.312 4.919,18.716C4.889,17.96 4.889,17.201 4.919,16.444C4.941,15.847 5.345,15.446 5.856,15.437C6.394,15.427 6.798,15.84 6.833,16.472C6.856,16.85 6.838,17.23 6.838,17.609Z" fill="#61DE56"/>
<path d="M21.335,55.604C21.335,43.757 21.337,31.91 21.337,20.062C21.337,19.187 21.337,19.185 22.112,19.185C26.357,19.185 30.602,19.183 34.847,19.183C34.854,19.473 34.867,19.763 34.867,20.051C34.868,31.904 34.868,43.755 34.87,55.608C32.936,55.61 31,55.612 29.066,55.615C28.832,55.314 28.881,54.946 28.881,54.595C28.874,52.459 28.881,50.321 28.876,48.185C28.874,47.313 28.832,47.272 28.07,47.265C27.449,47.259 26.826,47.259 26.204,47.265C25.442,47.27 25.4,47.313 25.399,48.185C25.394,50.321 25.4,52.459 25.394,54.595C25.392,54.946 25.442,55.314 25.208,55.615C23.917,55.612 22.625,55.608 21.335,55.604Z" fill="#61DE56"/>
<path d="M42.597,55.603C41.31,55.603 40.022,55.603 38.735,55.603C38.735,52.951 38.743,50.301 38.725,47.65C38.722,47.2 38.809,47.021 39.25,47.039C40.193,47.075 41.139,47.075 42.082,47.039C42.522,47.021 42.609,47.202 42.606,47.65C42.588,50.301 42.597,52.953 42.597,55.603Z" fill="#546F7A"/>
<path d="M39.697,22.408C39.697,22.764 39.713,23.12 39.694,23.473C39.658,24.109 39.268,24.533 38.741,24.538C38.214,24.544 37.799,24.121 37.776,23.491C37.75,22.759 37.75,22.025 37.778,21.292C37.802,20.667 38.228,20.248 38.756,20.261C39.26,20.273 39.65,20.68 39.691,21.274C39.716,21.65 39.696,22.03 39.696,22.408C39.696,22.408 39.696,22.408 39.697,22.408Z" fill="#61DE56"/>
<path d="M41.636,22.349C41.636,21.992 41.617,21.636 41.641,21.283C41.68,20.687 42.064,20.279 42.569,20.261C43.095,20.243 43.53,20.662 43.554,21.285C43.583,22.039 43.584,22.796 43.551,23.55C43.525,24.137 43.1,24.54 42.596,24.54C42.093,24.54 41.701,24.135 41.638,23.55C41.633,23.505 41.633,23.46 41.633,23.417C41.633,23.061 41.633,22.707 41.633,22.35C41.634,22.349 41.634,22.349 41.636,22.349Z" fill="#61DE56"/>
<path d="M37.768,28.832C37.768,28.476 37.753,28.119 37.771,27.765C37.803,27.126 38.188,26.701 38.716,26.69C39.243,26.68 39.666,27.1 39.689,27.727C39.716,28.459 39.716,29.194 39.689,29.926C39.666,30.554 39.245,30.977 38.719,30.968C38.191,30.959 37.805,30.533 37.771,29.895C37.753,29.544 37.768,29.188 37.768,28.832Z" fill="#61DE56"/>
<path d="M41.634,28.834C41.634,28.477 41.62,28.121 41.638,27.767C41.67,27.127 42.052,26.703 42.58,26.692C43.108,26.681 43.531,27.102 43.554,27.729C43.581,28.461 43.581,29.195 43.554,29.928C43.531,30.556 43.112,30.979 42.584,30.97C42.056,30.962 41.668,30.535 41.636,29.899C41.618,29.544 41.634,29.188 41.634,28.834Z" fill="#61DE56"/>
<path d="M37.771,35.209C37.771,34.853 37.752,34.497 37.774,34.144C37.813,33.548 38.197,33.14 38.703,33.122C39.229,33.104 39.663,33.523 39.687,34.144C39.716,34.898 39.718,35.655 39.684,36.409C39.658,36.996 39.234,37.399 38.73,37.399C38.226,37.399 37.818,36.996 37.776,36.407C37.749,36.012 37.771,35.61 37.771,35.209Z" fill="#61DE56"/>
<path d="M43.562,35.226C43.562,35.603 43.58,35.983 43.557,36.359C43.52,36.987 43.112,37.41 42.585,37.401C42.057,37.394 41.659,36.968 41.639,36.33C41.617,35.619 41.617,34.909 41.639,34.198C41.659,33.559 42.052,33.134 42.58,33.124C43.129,33.113 43.53,33.553 43.56,34.226C43.575,34.56 43.564,34.893 43.564,35.226C43.562,35.226 43.562,35.226 43.562,35.226Z" fill="#61DE56"/>
<path d="M39.692,41.712C39.692,42.09 39.716,42.47 39.687,42.844C39.641,43.431 39.232,43.832 38.727,43.829C38.223,43.825 37.803,43.422 37.779,42.833C37.747,42.079 37.749,41.322 37.778,40.568C37.8,39.972 38.202,39.566 38.707,39.551C39.234,39.535 39.65,39.954 39.691,40.579C39.715,40.955 39.695,41.335 39.695,41.712C39.694,41.712 39.694,41.712 39.692,41.712Z" fill="#61DE56"/>
<path d="M43.564,41.698C43.564,42.054 43.578,42.411 43.559,42.763C43.525,43.399 43.133,43.823 42.606,43.829C42.078,43.834 41.663,43.412 41.641,42.781C41.615,42.049 41.615,41.315 41.642,40.583C41.667,39.958 42.091,39.537 42.621,39.551C43.124,39.564 43.502,39.97 43.56,40.565C43.565,40.609 43.565,40.654 43.565,40.697C43.564,41.032 43.564,41.365 43.564,41.698Z" fill="#61DE56"/>
<path d="M39.692,15.985C39.692,16.363 39.716,16.743 39.687,17.119C39.642,17.706 39.235,18.109 38.732,18.109C38.228,18.109 37.803,17.706 37.779,17.119C37.747,16.343 37.744,15.563 37.782,14.787C37.81,14.209 38.26,13.799 38.761,13.835C39.292,13.873 39.618,14.209 39.683,14.787C39.728,15.181 39.692,15.586 39.692,15.985Z" fill="#61DE56"/>
<path d="M43.56,16.01C43.56,16.367 43.58,16.723 43.555,17.076C43.515,17.701 43.102,18.121 42.576,18.109C42.072,18.096 41.665,17.69 41.642,17.095C41.613,16.342 41.612,15.584 41.644,14.83C41.668,14.24 42.083,13.837 42.588,13.831C43.091,13.826 43.507,14.227 43.552,14.811C43.583,15.208 43.559,15.609 43.559,16.01L43.56,16.01Z" fill="#61DE56"/>
<path d="M53.229,55.603C52.585,55.603 51.941,55.603 51.296,55.603C51.296,53.909 51.293,52.215 51.298,50.523C51.3,49.671 51.65,49.2 52.263,49.2C52.877,49.2 53.227,49.673 53.229,50.523C53.232,52.215 53.229,53.909 53.229,55.603Z" fill="#546F7A"/>
<path d="M49.367,25.636C49.367,25.256 49.348,24.877 49.37,24.501C49.408,23.874 49.819,23.46 50.357,23.477C50.87,23.491 51.266,23.892 51.287,24.494C51.313,25.249 51.316,26.008 51.285,26.766C51.261,27.36 50.848,27.756 50.334,27.758C49.821,27.759 49.417,27.365 49.374,26.775C49.346,26.395 49.367,26.015 49.367,25.636Z" fill="#E61E14"/>
<path d="M55.16,25.618C55.16,25.974 55.174,26.332 55.156,26.687C55.126,27.328 54.743,27.747 54.207,27.756C53.67,27.763 53.258,27.349 53.237,26.716C53.213,25.981 53.213,25.246 53.237,24.511C53.258,23.881 53.674,23.466 54.212,23.477C54.748,23.487 55.126,23.906 55.156,24.549C55.174,24.904 55.16,25.262 55.16,25.618Z" fill="#E61E14"/>
<path d="M51.292,32.069C51.292,32.447 51.314,32.828 51.287,33.204C51.243,33.795 50.838,34.189 50.325,34.185C49.811,34.182 49.399,33.786 49.375,33.192C49.346,32.436 49.348,31.677 49.374,30.92C49.395,30.321 49.795,29.919 50.305,29.906C50.843,29.892 51.251,30.304 51.288,30.934C51.311,31.312 51.293,31.691 51.293,32.069C51.292,32.069 51.292,32.069 51.292,32.069Z" fill="#E61E14"/>
<path d="M55.158,32.067C55.156,32.445 55.179,32.826 55.152,33.202C55.108,33.793 54.706,34.189 54.191,34.187C53.678,34.185 53.264,33.79 53.24,33.195C53.209,32.44 53.213,31.68 53.239,30.923C53.26,30.323 53.657,29.92 54.168,29.906C54.708,29.89 55.116,30.3 55.155,30.93C55.177,31.308 55.158,31.688 55.158,32.067Z" fill="#E61E14"/>
<path d="M51.293,38.507C51.293,38.864 51.309,39.222 51.29,39.576C51.254,40.208 50.854,40.624 50.316,40.617C49.803,40.609 49.396,40.212 49.374,39.616C49.345,38.86 49.345,38.101 49.374,37.344C49.396,36.747 49.8,36.346 50.312,36.337C50.849,36.327 51.253,36.74 51.288,37.372C51.311,37.748 51.293,38.128 51.293,38.507Z" fill="#E61E14"/>
<path d="M55.156,38.493C55.156,38.871 55.179,39.252 55.152,39.628C55.11,40.221 54.709,40.617 54.194,40.617C53.679,40.617 53.263,40.221 53.24,39.628C53.209,38.849 53.206,38.067 53.242,37.29C53.269,36.71 53.713,36.307 54.223,36.339C54.758,36.373 55.084,36.708 55.147,37.29C55.19,37.687 55.156,38.092 55.156,38.493Z" fill="#E61E14"/>
<path d="M51.295,44.907C51.295,45.263 51.309,45.621 51.292,45.975C51.261,46.618 50.88,47.037 50.344,47.046C49.806,47.055 49.393,46.64 49.372,46.008C49.348,45.274 49.348,44.538 49.372,43.804C49.393,43.173 49.81,42.758 50.346,42.767C50.881,42.776 51.261,43.195 51.292,43.838C51.308,44.194 51.295,44.55 51.295,44.907Z" fill="#E61E14"/>
<path d="M55.156,44.924C55.156,45.302 55.179,45.684 55.152,46.06C55.108,46.652 54.708,47.048 54.194,47.048C53.679,47.048 53.264,46.652 53.24,46.06C53.209,45.281 53.206,44.498 53.242,43.721C53.269,43.141 53.713,42.738 54.223,42.771C54.758,42.805 55.084,43.139 55.145,43.723C55.19,44.117 55.156,44.523 55.156,44.924Z" fill="#E61E14"/>
<path d="M25.206,55.615C25.205,52.942 25.213,50.269 25.193,47.594C25.19,47.163 25.289,47.025 25.689,47.039C26.653,47.071 27.618,47.071 28.582,47.039C28.982,47.025 29.081,47.163 29.078,47.596C29.058,50.269 29.066,52.942 29.065,55.615C27.778,55.615 26.493,55.615 25.206,55.615Z" fill="#546F7A"/>
<path d="M22.309,22.383C22.309,22.005 22.286,21.623 22.313,21.247C22.357,20.655 22.757,20.261 23.271,20.261C23.783,20.261 24.201,20.657 24.223,21.249C24.254,22.026 24.257,22.809 24.22,23.586C24.193,24.166 23.745,24.571 23.238,24.537C22.706,24.501 22.378,24.166 22.317,23.584C22.276,23.188 22.31,22.784 22.309,22.383Z" fill="#E61E14"/>
<path d="M28.096,22.417C28.096,22.794 28.119,23.176 28.091,23.552C28.048,24.143 27.646,24.54 27.136,24.54C26.624,24.54 26.206,24.144 26.182,23.552C26.151,22.775 26.14,21.99 26.186,21.215C26.222,20.632 26.571,20.299 27.105,20.263C27.615,20.229 28.041,20.632 28.09,21.213C28.122,21.613 28.096,22.016 28.096,22.417Z" fill="#E61E14"/>
<path d="M30.038,22.424C30.037,22.046 30.019,21.665 30.041,21.289C30.079,20.66 30.489,20.247 31.025,20.261C31.535,20.275 31.935,20.676 31.956,21.274C31.984,22.03 31.985,22.789 31.955,23.545C31.93,24.137 31.517,24.537 31.005,24.54C30.493,24.544 30.088,24.148 30.043,23.559C30.017,23.183 30.04,22.802 30.038,22.424Z" fill="#E61E14"/>
<path d="M24.231,28.807C24.233,29.185 24.251,29.566 24.228,29.942C24.189,30.57 23.779,30.984 23.245,30.97C22.735,30.955 22.334,30.554 22.313,29.954C22.286,29.199 22.284,28.44 22.315,27.684C22.339,27.09 22.751,26.694 23.263,26.69C23.774,26.687 24.18,27.081 24.225,27.672C24.254,28.048 24.231,28.429 24.231,28.807Z" fill="#E61E14"/>
<path d="M28.098,28.807C28.099,29.185 28.117,29.566 28.095,29.942C28.056,30.57 27.646,30.984 27.111,30.97C26.601,30.955 26.201,30.554 26.18,29.954C26.152,29.199 26.151,28.44 26.182,27.684C26.206,27.09 26.617,26.694 27.129,26.69C27.641,26.687 28.046,27.081 28.091,27.672C28.12,28.048 28.096,28.429 28.098,28.807Z" fill="#E61E14"/>
<path d="M30.038,28.853C30.037,28.476 30.019,28.094 30.041,27.718C30.079,27.09 30.489,26.676 31.025,26.69C31.535,26.705 31.935,27.106 31.956,27.704C31.984,28.459 31.985,29.219 31.955,29.974C31.93,30.567 31.517,30.966 31.005,30.97C30.493,30.973 30.088,30.578 30.043,29.988C30.017,29.612 30.04,29.233 30.038,28.853Z" fill="#E61E14"/>
<path d="M22.307,35.236C22.307,34.88 22.291,34.522 22.31,34.167C22.346,33.534 22.741,33.116 23.277,33.122C23.789,33.127 24.201,33.525 24.225,34.117C24.256,34.873 24.254,35.632 24.226,36.388C24.204,36.986 23.804,37.388 23.293,37.401C22.759,37.415 22.349,37 22.312,36.371C22.289,35.994 22.307,35.614 22.307,35.236Z" fill="#E61E14"/>
<path d="M28.101,35.261C28.101,35.618 28.116,35.974 28.098,36.33C28.066,36.971 27.683,37.392 27.15,37.401C26.616,37.41 26.201,36.993 26.178,36.363C26.154,35.628 26.152,34.893 26.178,34.158C26.199,33.528 26.616,33.113 27.152,33.122C27.686,33.131 28.067,33.551 28.098,34.194C28.114,34.549 28.101,34.905 28.101,35.261Z" fill="#E61E14"/>
<path d="M30.038,35.211C30.038,34.855 30.019,34.497 30.041,34.142C30.079,33.543 30.46,33.14 30.97,33.122C31.506,33.104 31.934,33.517 31.956,34.142C31.984,34.898 31.985,35.657 31.953,36.413C31.929,37.003 31.509,37.401 30.999,37.401C30.487,37.401 30.085,37.003 30.043,36.413C30.017,36.013 30.04,35.611 30.038,35.211Z" fill="#E61E14"/>
<path d="M24.235,41.689C24.235,42.045 24.249,42.402 24.231,42.758C24.201,43.399 23.82,43.822 23.285,43.83C22.751,43.841 22.333,43.424 22.312,42.794C22.286,42.06 22.286,41.324 22.312,40.59C22.333,39.958 22.746,39.542 23.282,39.551C23.816,39.56 24.199,39.979 24.231,40.62C24.249,40.977 24.235,41.333 24.235,41.689Z" fill="#E61E14"/>
<path d="M26.173,41.7C26.173,41.322 26.154,40.941 26.178,40.565C26.217,39.967 26.601,39.564 27.113,39.551C27.649,39.537 28.07,39.951 28.093,40.579C28.12,41.313 28.119,42.049 28.095,42.783C28.074,43.417 27.664,43.834 27.129,43.83C26.595,43.827 26.207,43.406 26.175,42.769C26.157,42.414 26.172,42.056 26.172,41.7C26.172,41.7 26.172,41.7 26.173,41.7Z" fill="#E61E14"/>
<path d="M30.04,41.61C30.04,41.254 30.017,40.896 30.043,40.541C30.087,39.949 30.484,39.553 30.997,39.551C31.509,39.55 31.93,39.945 31.953,40.536C31.985,41.313 31.987,42.096 31.951,42.873C31.924,43.454 31.48,43.859 30.973,43.827C30.439,43.793 30.109,43.46 30.05,42.878C30.006,42.461 30.042,42.033 30.04,41.61Z" fill="#E61E14"/>
</svg>
