<svg width="30" height="30" viewBox="0 0 30 30" fill="none" xmlns="http://www.w3.org/2000/svg">
<path d="M13.8459 6.94388C13.8459 8.04901 13.8488 9.15413 13.8449 10.2593C13.8382 12.3606 12.3589 13.8406 10.2561 13.8434C8.03288 13.8473 5.8106 13.8473 3.58735 13.8434C1.49035 13.8396 0.00626402 12.3529 0.00240924 10.2544C-0.000481847 8.03263 -0.00144554 5.80985 0.00337293 3.58708C0.00722771 1.49052 1.49421 0.00674444 3.59217 0.00289047C5.81542 -0.000963491 8.0377 -0.000963491 10.2609 0.00289047C12.3608 0.00674444 13.8401 1.48956 13.8459 3.59093C13.8488 4.70858 13.8459 5.82623 13.8459 6.94388Z" fill="white"/>
<path d="M16.158 6.92437C16.158 5.80672 16.1551 4.69003 16.1589 3.57239C16.1666 1.49702 17.6536 0.00746706 19.7275 0.00361309C21.9623 -0.00120436 24.1971 -0.00120436 26.4319 0.00361309C28.5096 0.00843055 29.9957 1.49413 30.0005 3.57142C30.0053 5.80576 30.0063 8.04009 30.0005 10.2754C29.9957 12.3536 28.5096 13.8393 26.4329 13.8442C24.1981 13.849 21.9633 13.849 19.7285 13.8442C17.6527 13.8393 16.1657 12.3508 16.158 10.2764C16.1541 9.15967 16.158 8.04202 16.158 6.92437Z" fill="white"/>
<path d="M6.96053 16.1573C8.06589 16.1573 9.17124 16.1544 10.2766 16.1583C12.3534 16.166 13.8403 17.6497 13.8452 19.727C13.85 21.9614 13.8509 24.1957 13.8452 26.431C13.8394 28.5092 12.3543 29.995 10.2766 29.9998C8.04179 30.0046 5.80699 30.0046 3.57218 29.9998C1.49734 29.995 0.00746864 28.5054 0.00361386 26.431C-0.00120462 24.1967 -0.00120462 21.9623 0.00361386 19.727C0.00843233 17.6517 1.49734 16.165 3.57314 16.1583C4.70163 16.1544 5.83108 16.1573 6.96053 16.1573Z" fill="white"/>
<path d="M19.4888 21.9251C20.1971 21.9251 20.9063 21.9135 21.6147 21.9318C21.8729 21.9386 21.9317 21.8567 21.9298 21.609C21.9182 20.1802 21.9192 18.7504 21.9269 17.3215C21.9308 16.7087 22.3673 16.2289 22.9494 16.1634C23.517 16.0998 24.0499 16.4669 24.1916 17.0344C24.2292 17.1828 24.2292 17.3437 24.2301 17.4988C24.233 18.8438 24.2407 20.1889 24.2243 21.5339C24.2205 21.8364 24.2764 21.9405 24.6098 21.9347C25.9783 21.9125 27.3486 21.9241 28.7171 21.926C29.4775 21.927 30.0027 22.4058 29.9978 23.0861C29.994 23.7653 29.4697 24.2307 28.7026 24.2317C27.3217 24.2336 25.9397 24.2403 24.5588 24.2249C24.2831 24.222 24.2224 24.301 24.2243 24.566C24.2378 25.9467 24.2321 27.3283 24.2301 28.709C24.2292 29.474 23.7579 29.9972 23.0776 29.9982C22.3981 29.9991 21.925 29.4731 21.924 28.7109C21.9221 27.3303 21.9163 25.9486 21.9298 24.5679C21.9327 24.3059 21.8758 24.222 21.5973 24.2249C20.2761 24.2413 18.9549 24.2317 17.6336 24.2317C16.6969 24.2317 16.1611 23.8164 16.1563 23.087C16.1505 22.3403 16.6854 21.9251 17.65 21.9251C18.2639 21.9251 18.8768 21.9251 19.4888 21.9251Z" fill="white"/>
</svg>
