<svg width="38" height="38" viewBox="0 0 38 38" fill="none" xmlns="http://www.w3.org/2000/svg">
<g filter="url(#filter0_d_1_837)">
<path d="M19 5.32353C17.2389 5.35583 15.5893 5.7912 14.0727 6.69718C12.8827 7.40786 11.8931 8.33513 11.0871 9.46283C10.9799 9.61333 11.0048 9.675 11.1436 9.77705C11.9922 10.4018 12.8335 11.0369 13.6763 11.669C13.7607 11.7329 13.8429 11.7997 13.9589 11.8915C13.2637 12.0648 12.6037 12.2307 11.9438 12.3944C9.32521 13.0464 6.70665 13.6976 4.08736 14.3488C4.05946 14.3554 4.02936 14.3547 4 14.3569C4 11.056 4 7.75513 4 4.45353C4.14902 4.42049 4.23124 4.53869 4.32741 4.60991C5.02408 5.12677 5.72221 5.64216 6.40787 6.17444C6.60681 6.32862 6.70812 6.29778 6.84687 6.1069C7.61768 5.04381 8.51989 4.10406 9.5403 3.27737C11.1766 1.95145 13.0134 1.0161 15.0432 0.458862C15.9285 0.215848 16.8241 0.0374431 17.7469 0.0301013C17.777 0.0301013 17.8034 0.0212912 17.8254 0C17.9032 0 17.9818 0 18.0596 0C18.1279 0.0572659 18.2094 0.0190886 18.2842 0.0301013C18.3459 0.0220254 18.4149 0.0521267 18.4692 0C18.6447 0 18.8209 0 18.9963 0C19.0969 0.112329 19.0903 0.251089 19.0903 0.386912C19.0925 1.90372 19.0925 3.42054 19.0896 4.93735C19.0932 5.0717 19.1072 5.2134 19 5.32353Z" fill="#FC3018"/>
<path d="M18.9993 29.99C16.6758 30.0047 14.4625 29.5033 12.3989 28.449C8.39656 26.4028 5.74203 23.2194 4.50874 18.8775C4.28997 18.1066 4.16297 17.3174 4.0646 16.523C4.05726 16.4606 4.08589 16.3813 4 16.346C4 16.2484 4 16.1508 4 16.0531C4.87065 15.8901 5.72148 15.6412 6.58185 15.4349C7.47086 15.222 8.35692 14.9974 9.26281 14.7734C9.32301 15.2969 9.36852 15.8108 9.44193 16.3196C9.8501 19.1587 11.2559 21.3862 13.6073 23.0095C15.2245 24.1261 17.0421 24.6371 18.9985 24.676C19.1057 24.7869 19.0918 24.9286 19.0918 25.063C19.0947 26.5761 19.0947 28.0892 19.0918 29.6016C19.0925 29.7375 19.1072 29.8792 18.9993 29.99Z" fill="#FC3018"/>
<path d="M19.0007 5.32353C19.0007 3.54902 19.0007 1.77451 19 0C19.1175 0 19.2342 0 19.3516 0C19.508 0.04919 19.6644 0.04919 19.82 0C19.9375 0 20.0542 0 20.1716 0C20.5291 0.124076 20.9087 0.110127 21.2765 0.168127C23.8994 0.583672 26.2478 1.61372 28.321 3.27297C30.8808 5.32206 32.6089 7.92105 33.4898 11.0817C33.7387 11.9745 33.8745 12.887 33.9816 13.8048C33.9985 13.9494 33.9442 13.9824 33.8128 14.0074C32.4297 14.2746 31.0489 14.5499 29.6666 14.8231C29.428 14.87 29.1813 14.8913 28.953 14.967C28.6777 15.058 28.6887 14.8869 28.6719 14.7173C28.5984 13.9912 28.5118 13.2695 28.3276 12.5596C27.8181 10.5935 26.7896 8.95477 25.2509 7.63692C23.7431 6.3455 21.9841 5.62748 20.0211 5.39474C19.6842 5.35583 19.3414 5.34629 19.0007 5.32353Z" fill="#E51E14"/>
<path d="M19.82 0C19.6637 0.0917723 19.5073 0.0895698 19.3517 0C19.5073 0 19.6637 0 19.82 0Z" fill="#E51E14"/>
<path d="M18.2945 0.0506583C18.2145 0.0455191 18.122 0.0976457 18.0625 0C18.1403 0 18.2189 0 18.2967 0C18.3165 0.012481 18.3224 0.0242279 18.315 0.0352406C18.3084 0.0455191 18.3011 0.0506583 18.2945 0.0506583Z" fill="#FC3018"/>
<path d="M18.2969 0.0506583C18.2983 0.0337722 18.2991 0.0168861 18.2998 0C18.3585 0 18.4173 0 18.4753 0C18.4312 0.0726837 18.3629 0.0580001 18.2969 0.0506583Z" fill="#FC3018"/>
<path d="M19 29.992C19 28.2211 19 26.4495 19 24.6787C20.3331 24.628 21.6215 24.3836 22.8533 23.8506C24.4728 23.1501 26.2265 21.6899 27.004 20.3551C26.0232 19.6195 25.041 18.8831 24.0103 18.1107C24.472 17.994 24.8883 17.8876 25.3045 17.784C28.1301 17.0822 30.9557 16.3825 33.7798 15.6755C33.9486 15.6336 34 15.649 34 15.8341C33.9956 19.0556 33.9971 22.2772 33.9971 25.5561C33.0882 24.8769 32.2117 24.2213 31.3256 23.5584C30.6503 24.5054 29.9 25.3762 29.0389 26.1478C27.0855 27.8988 24.831 29.0713 22.2712 29.644C21.1964 29.8848 20.1078 30.036 19 29.992Z" fill="#E51E14"/>
<path d="M19.8761 12.4754C20.514 12.7779 21.0426 13.1905 21.3758 13.8388C22.2502 15.5377 20.9082 17.6888 19.0032 17.6249C18.9173 17.5427 18.9107 17.434 18.9107 17.3269C18.907 15.7491 18.9019 14.1706 18.9129 12.5929C18.9129 12.5444 18.9217 12.496 18.9342 12.449C18.9445 12.4137 18.9614 12.3807 18.9841 12.3521C19.3049 12.2243 19.5971 12.3036 19.8761 12.4754Z" fill="#E51E14"/>
<path d="M19.0044 12.3771C19.0044 14.1274 19.0044 15.8777 19.0044 17.628C18.4171 17.6294 17.8937 17.4371 17.4158 17.1067C17.2675 17.0942 17.1691 16.9988 17.0781 16.8974C16.7573 16.5392 16.4769 16.1581 16.4343 15.6552C16.3088 14.9563 16.3697 14.2852 16.7419 13.6649C17.0671 13.123 17.5149 12.7302 18.1271 12.5401C18.34 12.3206 18.7416 12.2464 19.0044 12.3771Z" fill="#FC3018"/>
<path d="M16.4346 15.6562C16.6387 16.223 16.9213 16.7377 17.4161 17.1077C16.4045 17.7854 15.3915 18.4601 14.3835 19.1421C14.2595 19.2258 14.1941 19.2258 14.109 19.0937C13.8623 18.7082 13.6105 18.325 13.3455 17.9528C13.2391 17.8037 13.2941 17.7479 13.4196 17.665C14.4276 16.9991 15.4304 16.3266 16.4346 15.6562Z" fill="#00B100"/>
<path d="M19.0018 12.3751C18.6986 12.3707 18.4043 12.4125 18.1246 12.5373C18.1238 11.0932 18.126 9.6498 18.1172 8.20567C18.1158 8.01552 18.1649 7.94651 18.3587 7.96339C18.5716 7.98175 18.7875 7.97294 19.0018 7.97661C19.1083 8.08747 19.0936 8.22917 19.0936 8.36426C19.0965 9.56464 19.0965 10.765 19.0936 11.9647C19.0936 12.099 19.1075 12.2415 18.9989 12.3508L19.0018 12.3751Z" fill="#00B100"/>
<path d="M19 12.3536C19.0007 10.8956 19.0022 9.43749 19.0029 7.97941C19.2841 7.98161 19.6401 7.88103 19.8244 8.01538C20.0013 8.1446 19.8765 8.52417 19.878 8.79288C19.8831 10.0212 19.8773 11.2494 19.8758 12.4785C19.5829 12.4432 19.2988 12.3463 19 12.3536Z" fill="#52D80B"/>
</g>
<defs>
<filter id="filter0_d_1_837" x="0" y="0" width="38" height="37.9996" filterUnits="userSpaceOnUse" color-interpolation-filters="sRGB">
<feFlood flood-opacity="0" result="BackgroundImageFix"/>
<feColorMatrix in="SourceAlpha" type="matrix" values="0 0 0 0 0 0 0 0 0 0 0 0 0 0 0 0 0 0 127 0" result="hardAlpha"/>
<feOffset dy="4"/>
<feGaussianBlur stdDeviation="2"/>
<feComposite in2="hardAlpha" operator="out"/>
<feColorMatrix type="matrix" values="0 0 0 0 0 0 0 0 0 0 0 0 0 0 0 0 0 0 0.25 0"/>
<feBlend mode="normal" in2="BackgroundImageFix" result="effect1_dropShadow_1_837"/>
<feBlend mode="normal" in="SourceGraphic" in2="effect1_dropShadow_1_837" result="shape"/>
</filter>
</defs>
</svg>
